<?xml version="1.0" encoding="UTF-8" standalone="no"?><svg xmlns="http://www.w3.org/2000/svg" xmlns:xlink="http://www.w3.org/1999/xlink" contentScriptType="application/ecmascript" contentStyleType="text/css" height="399px" preserveAspectRatio="none" style="width:470px;height:399px;" version="1.1" viewBox="0 0 470 399" width="470px" zoomAndPan="magnify"><defs><filter height="300%" id="fdfnsr5b7gpf0" width="300%" x="-1" y="-1"><feGaussianBlur result="blurOut" stdDeviation="2.0"/><feColorMatrix in="blurOut" result="blurOut2" type="matrix" values="0 0 0 0 0 0 0 0 0 0 0 0 0 0 0 0 0 0 .4 0"/><feOffset dx="4.0" dy="4.0" in="blurOut2" result="blurOut3"/><feBlend in="SourceGraphic" in2="blurOut3" mode="normal"/></filter></defs><g><!--class RSSbot--><rect fill="#FEFECE" filter="url(#fdfnsr5b7gpf0)" height="164.0815" id="RSSbot" style="stroke: #A80036; stroke-width: 1.5;" width="126" x="159" y="8"/><ellipse cx="198.3" cy="24" fill="#ADD1B2" rx="11" ry="11" style="stroke: #A80036; stroke-width: 1.0;"/><path d="M192.5969,23.875 Q192.5969,22.7813 192.9875,21.6953 Q193.3781,20.6094 194.1203,19.7656 Q194.8625,18.9219 195.9328,18.3906 Q197.0031,17.8594 198.3781,17.8594 Q199.9875,17.8594 201.1672,18.5938 Q202.3469,19.3281 202.9094,20.5 L201.1125,21.7344 Q200.9094,21.2344 200.5891,20.8828 Q200.2688,20.5313 199.8859,20.3281 Q199.5031,20.125 199.0891,20.0313 Q198.675,19.9375 198.3,19.9375 Q197.4719,19.9375 196.8469,20.2969 Q196.2219,20.6563 195.8,21.2188 Q195.3781,21.7813 195.1672,22.5078 Q194.9563,23.2344 194.9563,23.9531 Q194.9563,24.75 195.2063,25.4844 Q195.4563,26.2188 195.9016,26.7813 Q196.3469,27.3438 196.9797,27.6875 Q197.6125,28.0313 198.3625,28.0313 Q198.7531,28.0313 199.1594,27.9297 Q199.5656,27.8281 199.9484,27.6016 Q200.3313,27.375 200.6516,27.0313 Q200.9719,26.6875 201.175,26.1875 L203.0969,27.2969 Q202.8313,27.9844 202.3078,28.5 Q201.7844,29.0156 201.1281,29.375 Q200.4719,29.7344 199.7375,29.9219 Q199.0031,30.1094 198.2844,30.1094 Q197.0344,30.1094 195.9875,29.5625 Q194.9406,29.0156 194.1828,28.1406 Q193.425,27.2656 193.0109,26.1484 Q192.5969,25.0313 192.5969,23.875 Z "/><text fill="#000000" font-family="sans-serif" font-size="12" lengthAdjust="spacingAndGlyphs" textLength="40" x="217.7" y="28.2337">RSSbot</text><line style="stroke: #A80036; stroke-width: 1.5;" x1="160" x2="284" y1="40" y2="40"/><rect fill="none" height="6" style="stroke: #C82930; stroke-width: 1.0;" width="6" x="167" y="48.949"/><text fill="#000000" font-family="sans-serif" font-size="11" lengthAdjust="spacingAndGlyphs" textLength="50" x="179" y="54.3271">rssfetcher</text><rect fill="none" height="6" style="stroke: #C82930; stroke-width: 1.0;" width="6" x="167" y="61.8469"/><text fill="#000000" font-family="sans-serif" font-size="11" lengthAdjust="spacingAndGlyphs" textLength="61" x="179" y="67.2251">rssdatabase</text><line style="stroke: #A80036; stroke-width: 1.5;" x1="160" x2="284" y1="73.7959" y2="73.7959"/><ellipse cx="170" cy="85.7449" fill="#84BE84" rx="3" ry="3" style="stroke: #038048; stroke-width: 1.0;"/><text fill="#000000" font-family="sans-serif" font-size="11" lengthAdjust="spacingAndGlyphs" textLength="29" x="179" y="88.123">start()</text><ellipse cx="170" cy="98.6428" fill="#84BE84" rx="3" ry="3" style="stroke: #038048; stroke-width: 1.0;"/><text fill="#000000" font-family="sans-serif" font-size="11" lengthAdjust="spacingAndGlyphs" textLength="25" x="179" y="101.021">sub()</text><ellipse cx="170" cy="111.5408" fill="#84BE84" rx="3" ry="3" style="stroke: #038048; stroke-width: 1.0;"/><text fill="#000000" font-family="sans-serif" font-size="11" lengthAdjust="spacingAndGlyphs" textLength="38" x="179" y="113.9189">unsub()</text><ellipse cx="170" cy="124.4387" fill="#84BE84" rx="3" ry="3" style="stroke: #038048; stroke-width: 1.0;"/><text fill="#000000" font-family="sans-serif" font-size="11" lengthAdjust="spacingAndGlyphs" textLength="20" x="179" y="126.8169">rss()</text><rect fill="#F24D5C" height="6" style="stroke: #C82930; stroke-width: 1.0;" width="6" x="167" y="134.3367"/><text fill="#000000" font-family="sans-serif" font-size="11" lengthAdjust="spacingAndGlyphs" textLength="51" x="179" y="139.7148">__refresh()</text><rect fill="#F24D5C" height="6" style="stroke: #C82930; stroke-width: 1.0;" width="6" x="167" y="147.2346"/><text fill="#000000" font-family="sans-serif" font-size="11" lengthAdjust="spacingAndGlyphs" textLength="100" x="179" y="152.6128">__update(String url)</text><rect fill="#F24D5C" height="6" style="stroke: #C82930; stroke-width: 1.0;" width="6" x="167" y="160.1326"/><text fill="#000000" font-family="sans-serif" font-size="11" lengthAdjust="spacingAndGlyphs" textLength="40" x="179" y="165.5107">__send()</text><!--class RSSItem--><rect fill="#FEFECE" filter="url(#fdfnsr5b7gpf0)" height="112.4897" id="RSSItem" style="stroke: #A80036; stroke-width: 1.5;" width="80" x="44" y="34"/><ellipse cx="59.45" cy="50" fill="#ADD1B2" rx="11" ry="11" style="stroke: #A80036; stroke-width: 1.0;"/><path d="M53.7469,49.875 Q53.7469,48.7813 54.1375,47.6953 Q54.5281,46.6094 55.2703,45.7656 Q56.0125,44.9219 57.0828,44.3906 Q58.1531,43.8594 59.5281,43.8594 Q61.1375,43.8594 62.3172,44.5938 Q63.4969,45.3281 64.0594,46.5 L62.2625,47.7344 Q62.0594,47.2344 61.7391,46.8828 Q61.4188,46.5313 61.0359,46.3281 Q60.6531,46.125 60.2391,46.0313 Q59.825,45.9375 59.45,45.9375 Q58.6219,45.9375 57.9969,46.2969 Q57.3719,46.6563 56.95,47.2188 Q56.5281,47.7813 56.3172,48.5078 Q56.1063,49.2344 56.1063,49.9531 Q56.1063,50.75 56.3563,51.4844 Q56.6063,52.2188 57.0516,52.7813 Q57.4969,53.3438 58.1297,53.6875 Q58.7625,54.0313 59.5125,54.0313 Q59.9031,54.0313 60.3094,53.9297 Q60.7156,53.8281 61.0984,53.6016 Q61.4813,53.375 61.8016,53.0313 Q62.1219,52.6875 62.325,52.1875 L64.2469,53.2969 Q63.9813,53.9844 63.4578,54.5 Q62.9344,55.0156 62.2781,55.375 Q61.6219,55.7344 60.8875,55.9219 Q60.1531,56.1094 59.4344,56.1094 Q58.1844,56.1094 57.1375,55.5625 Q56.0906,55.0156 55.3328,54.1406 Q54.575,53.2656 54.1609,52.1484 Q53.7469,51.0313 53.7469,49.875 Z "/><text fill="#000000" font-family="sans-serif" font-size="12" lengthAdjust="spacingAndGlyphs" textLength="47" x="73.55" y="54.2337">RSSItem</text><line style="stroke: #A80036; stroke-width: 1.5;" x1="45" x2="123" y1="66" y2="66"/><ellipse cx="55" cy="77.949" fill="none" rx="3" ry="3" style="stroke: #038048; stroke-width: 1.0;"/><text fill="#000000" font-family="sans-serif" font-size="11" lengthAdjust="spacingAndGlyphs" textLength="19" x="64" y="80.3271">title</text><ellipse cx="55" cy="90.8469" fill="none" rx="3" ry="3" style="stroke: #038048; stroke-width: 1.0;"/><text fill="#000000" font-family="sans-serif" font-size="11" lengthAdjust="spacingAndGlyphs" textLength="14" x="64" y="93.2251">url</text><ellipse cx="55" cy="103.7449" fill="none" rx="3" ry="3" style="stroke: #038048; stroke-width: 1.0;"/><text fill="#000000" font-family="sans-serif" font-size="11" lengthAdjust="spacingAndGlyphs" textLength="28" x="64" y="106.123">name</text><ellipse cx="55" cy="116.6428" fill="none" rx="3" ry="3" style="stroke: #038048; stroke-width: 1.0;"/><text fill="#000000" font-family="sans-serif" font-size="11" lengthAdjust="spacingAndGlyphs" textLength="17" x="64" y="119.021">link</text><line style="stroke: #A80036; stroke-width: 1.5;" x1="45" x2="123" y1="125.5918" y2="125.5918"/><ellipse cx="55" cy="137.5408" fill="#84BE84" rx="3" ry="3" style="stroke: #038048; stroke-width: 1.0;"/><text fill="#000000" font-family="sans-serif" font-size="11" lengthAdjust="spacingAndGlyphs" textLength="54" x="64" y="139.9189">get_mark()</text><!--class RSSFetcher--><rect fill="#FEFECE" filter="url(#fdfnsr5b7gpf0)" height="65.7959" id="RSSFetcher" style="stroke: #A80036; stroke-width: 1.5;" width="178" x="6" y="277"/><ellipse cx="58.25" cy="293" fill="#ADD1B2" rx="11" ry="11" style="stroke: #A80036; stroke-width: 1.0;"/><path d="M52.5469,292.875 Q52.5469,291.7813 52.9375,290.6953 Q53.3281,289.6094 54.0703,288.7656 Q54.8125,287.9219 55.8828,287.3906 Q56.9531,286.8594 58.3281,286.8594 Q59.9375,286.8594 61.1172,287.5938 Q62.2969,288.3281 62.8594,289.5 L61.0625,290.7344 Q60.8594,290.2344 60.5391,289.8828 Q60.2188,289.5313 59.8359,289.3281 Q59.4531,289.125 59.0391,289.0313 Q58.625,288.9375 58.25,288.9375 Q57.4219,288.9375 56.7969,289.2969 Q56.1719,289.6563 55.75,290.2188 Q55.3281,290.7813 55.1172,291.5078 Q54.9063,292.2344 54.9063,292.9531 Q54.9063,293.75 55.1563,294.4844 Q55.4063,295.2188 55.8516,295.7813 Q56.2969,296.3438 56.9297,296.6875 Q57.5625,297.0313 58.3125,297.0313 Q58.7031,297.0313 59.1094,296.9297 Q59.5156,296.8281 59.8984,296.6016 Q60.2813,296.375 60.6016,296.0313 Q60.9219,295.6875 61.125,295.1875 L63.0469,296.2969 Q62.7813,296.9844 62.2578,297.5 Q61.7344,298.0156 61.0781,298.375 Q60.4219,298.7344 59.6875,298.9219 Q58.9531,299.1094 58.2344,299.1094 Q56.9844,299.1094 55.9375,298.5625 Q54.8906,298.0156 54.1328,297.1406 Q53.375,296.2656 52.9609,295.1484 Q52.5469,294.0313 52.5469,292.875 Z "/><text fill="#000000" font-family="sans-serif" font-size="12" lengthAdjust="spacingAndGlyphs" textLength="65" x="78.75" y="297.2337">RSSFetcher</text><line style="stroke: #A80036; stroke-width: 1.5;" x1="7" x2="183" y1="309" y2="309"/><ellipse cx="17" cy="320.949" fill="#84BE84" rx="3" ry="3" style="stroke: #038048; stroke-width: 1.0;"/><text fill="#000000" font-family="sans-serif" font-size="11" lengthAdjust="spacingAndGlyphs" textLength="93" x="26" y="323.3271">RSS check_rss(url)</text><ellipse cx="17" cy="333.8469" fill="#84BE84" rx="3" ry="3" style="stroke: #038048; stroke-width: 1.0;"/><text fill="#000000" font-family="sans-serif" font-size="11" lengthAdjust="spacingAndGlyphs" textLength="152" x="26" y="336.2251">List&lt;RSSItem&gt; update_rss(url)</text><!--class RSS--><rect fill="#FEFECE" filter="url(#fdfnsr5b7gpf0)" height="91.5918" id="RSS" style="stroke: #A80036; stroke-width: 1.5;" width="56" x="320" y="44"/><ellipse cx="335.9" cy="60" fill="#ADD1B2" rx="11" ry="11" style="stroke: #A80036; stroke-width: 1.0;"/><path d="M330.1969,59.875 Q330.1969,58.7813 330.5875,57.6953 Q330.9781,56.6094 331.7203,55.7656 Q332.4625,54.9219 333.5328,54.3906 Q334.6031,53.8594 335.9781,53.8594 Q337.5875,53.8594 338.7672,54.5938 Q339.9469,55.3281 340.5094,56.5 L338.7125,57.7344 Q338.5094,57.2344 338.1891,56.8828 Q337.8688,56.5313 337.4859,56.3281 Q337.1031,56.125 336.6891,56.0313 Q336.275,55.9375 335.9,55.9375 Q335.0719,55.9375 334.4469,56.2969 Q333.8219,56.6563 333.4,57.2188 Q332.9781,57.7813 332.7672,58.5078 Q332.5563,59.2344 332.5563,59.9531 Q332.5563,60.75 332.8063,61.4844 Q333.0563,62.2188 333.5016,62.7813 Q333.9469,63.3438 334.5797,63.6875 Q335.2125,64.0313 335.9625,64.0313 Q336.3531,64.0313 336.7594,63.9297 Q337.1656,63.8281 337.5484,63.6016 Q337.9313,63.375 338.2516,63.0313 Q338.5719,62.6875 338.775,62.1875 L340.6969,63.2969 Q340.4313,63.9844 339.9078,64.5 Q339.3844,65.0156 338.7281,65.375 Q338.0719,65.7344 337.3375,65.9219 Q336.6031,66.1094 335.8844,66.1094 Q334.6344,66.1094 333.5875,65.5625 Q332.5406,65.0156 331.7828,64.1406 Q331.025,63.2656 330.6109,62.1484 Q330.1969,61.0313 330.1969,59.875 Z "/><text fill="#000000" font-family="sans-serif" font-size="12" lengthAdjust="spacingAndGlyphs" textLength="22" x="350.1" y="64.2337">RSS</text><line style="stroke: #A80036; stroke-width: 1.5;" x1="321" x2="375" y1="76" y2="76"/><ellipse cx="331" cy="87.949" fill="none" rx="3" ry="3" style="stroke: #038048; stroke-width: 1.0;"/><text fill="#000000" font-family="sans-serif" font-size="11" lengthAdjust="spacingAndGlyphs" textLength="19" x="340" y="90.3271">title</text><ellipse cx="331" cy="100.8469" fill="none" rx="3" ry="3" style="stroke: #038048; stroke-width: 1.0;"/><text fill="#000000" font-family="sans-serif" font-size="11" lengthAdjust="spacingAndGlyphs" textLength="14" x="340" y="103.2251">url</text><ellipse cx="331" cy="113.7449" fill="none" rx="3" ry="3" style="stroke: #038048; stroke-width: 1.0;"/><text fill="#000000" font-family="sans-serif" font-size="11" lengthAdjust="spacingAndGlyphs" textLength="26" x="340" y="116.123">mark</text><ellipse cx="331" cy="126.6428" fill="none" rx="3" ry="3" style="stroke: #038048; stroke-width: 1.0;"/><text fill="#000000" font-family="sans-serif" font-size="11" lengthAdjust="spacingAndGlyphs" textLength="30" x="340" y="129.021">active</text><!--class RSSDatabase--><rect fill="#FEFECE" filter="url(#fdfnsr5b7gpf0)" height="156.0815" id="RSSDatabase" style="stroke: #A80036; stroke-width: 1.5;" width="235" x="224.5" y="232"/><ellipse cx="299.75" cy="248" fill="#ADD1B2" rx="11" ry="11" style="stroke: #A80036; stroke-width: 1.0;"/><path d="M294.0469,247.875 Q294.0469,246.7813 294.4375,245.6953 Q294.8281,244.6094 295.5703,243.7656 Q296.3125,242.9219 297.3828,242.3906 Q298.4531,241.8594 299.8281,241.8594 Q301.4375,241.8594 302.6172,242.5938 Q303.7969,243.3281 304.3594,244.5 L302.5625,245.7344 Q302.3594,245.2344 302.0391,244.8828 Q301.7188,244.5313 301.3359,244.3281 Q300.9531,244.125 300.5391,244.0313 Q300.125,243.9375 299.75,243.9375 Q298.9219,243.9375 298.2969,244.2969 Q297.6719,244.6563 297.25,245.2188 Q296.8281,245.7813 296.6172,246.5078 Q296.4063,247.2344 296.4063,247.9531 Q296.4063,248.75 296.6563,249.4844 Q296.9063,250.2188 297.3516,250.7813 Q297.7969,251.3438 298.4297,251.6875 Q299.0625,252.0313 299.8125,252.0313 Q300.2031,252.0313 300.6094,251.9297 Q301.0156,251.8281 301.3984,251.6016 Q301.7813,251.375 302.1016,251.0313 Q302.4219,250.6875 302.625,250.1875 L304.5469,251.2969 Q304.2813,251.9844 303.7578,252.5 Q303.2344,253.0156 302.5781,253.375 Q301.9219,253.7344 301.1875,253.9219 Q300.4531,254.1094 299.7344,254.1094 Q298.4844,254.1094 297.4375,253.5625 Q296.3906,253.0156 295.6328,252.1406 Q294.875,251.2656 294.4609,250.1484 Q294.0469,249.0313 294.0469,247.875 Z "/><text fill="#000000" font-family="sans-serif" font-size="12" lengthAdjust="spacingAndGlyphs" textLength="76" x="320.25" y="252.2337">RSSDatabase</text><line style="stroke: #A80036; stroke-width: 1.5;" x1="225.5" x2="458.5" y1="264" y2="264"/><ellipse cx="235.5" cy="275.949" fill="#84BE84" rx="3" ry="3" style="stroke: #038048; stroke-width: 1.0;"/><text fill="#000000" font-family="sans-serif" font-size="11" lengthAdjust="spacingAndGlyphs" textLength="86" x="244.5" y="278.3271">bool add_rss(rss)</text><ellipse cx="235.5" cy="288.8469" fill="#84BE84" rx="3" ry="3" style="stroke: #038048; stroke-width: 1.0;"/><text fill="#000000" font-family="sans-serif" font-size="11" lengthAdjust="spacingAndGlyphs" textLength="129" x="244.5" y="291.2251">bool add_sub(url,chat_id)</text><ellipse cx="235.5" cy="301.7449" fill="#84BE84" rx="3" ry="3" style="stroke: #038048; stroke-width: 1.0;"/><text fill="#000000" font-family="sans-serif" font-size="11" lengthAdjust="spacingAndGlyphs" textLength="125" x="244.5" y="304.123">bool del_sub(url,chat_id)</text><ellipse cx="235.5" cy="314.6428" fill="#84BE84" rx="3" ry="3" style="stroke: #038048; stroke-width: 1.0;"/><text fill="#000000" font-family="sans-serif" font-size="11" lengthAdjust="spacingAndGlyphs" textLength="121" x="244.5" y="317.021">bool set_mark(url,mark)</text><ellipse cx="235.5" cy="327.5408" fill="#84BE84" rx="3" ry="3" style="stroke: #038048; stroke-width: 1.0;"/><text fill="#000000" font-family="sans-serif" font-size="11" lengthAdjust="spacingAndGlyphs" textLength="130" x="244.5" y="329.9189">bool set_active(url,status)</text><ellipse cx="235.5" cy="340.4387" fill="#84BE84" rx="3" ry="3" style="stroke: #038048; stroke-width: 1.0;"/><text fill="#000000" font-family="sans-serif" font-size="11" lengthAdjust="spacingAndGlyphs" textLength="95" x="244.5" y="342.8169">bool get_mark(url)</text><ellipse cx="235.5" cy="353.3367" fill="#84BE84" rx="3" ry="3" style="stroke: #038048; stroke-width: 1.0;"/><text fill="#000000" font-family="sans-serif" font-size="11" lengthAdjust="spacingAndGlyphs" textLength="168" x="244.5" y="355.7148">List&lt;String&gt; get_chats_by_url(url)</text><ellipse cx="235.5" cy="366.2346" fill="#84BE84" rx="3" ry="3" style="stroke: #038048; stroke-width: 1.0;"/><text fill="#000000" font-family="sans-serif" font-size="11" lengthAdjust="spacingAndGlyphs" textLength="117" x="244.5" y="368.6128">RSS get_rss_by_url(url)</text><ellipse cx="235.5" cy="379.1326" fill="#84BE84" rx="3" ry="3" style="stroke: #038048; stroke-width: 1.0;"/><text fill="#000000" font-family="sans-serif" font-size="11" lengthAdjust="spacingAndGlyphs" textLength="209" x="244.5" y="381.5107">List&lt;RSS&gt; get_rss_list_by_chat_id(chat_id)</text><!--link RSSbot to RSSFetcher--><path d="M174.5293,172.2327 C154.6821,206.6136 132.5996,244.8668 116.7497,272.3234 " fill="none" id="RSSbot-RSSFetcher" style="stroke: #A80036; stroke-width: 1.0;"/><polygon fill="#A80036" points="114.0631,276.9773,122.027,271.1827,116.5629,272.6471,115.0986,267.183,114.0631,276.9773" style="stroke: #A80036; stroke-width: 1.0;"/><!--link RSSbot to RSSDatabase--><path d="M266.8542,172.2327 C276.6734,190.2346 287.0717,209.2981 296.9004,227.3175 " fill="none" id="RSSbot-RSSDatabase" style="stroke: #A80036; stroke-width: 1.0;"/><polygon fill="#A80036" points="299.3863,231.8749,298.5881,222.0584,296.992,227.4854,291.565,225.8893,299.3863,231.8749" style="stroke: #A80036; stroke-width: 1.0;"/><!--link RSSItem to RSSbot--><path d="M124.1602,90 C135.7532,90 147.3462,90 158.9392,90 " fill="none" id="RSSItem-RSSbot" style="stroke: #A80036; stroke-width: 1.0; stroke-dasharray: 7.0,7.0;"/><!--link RSSItem to RSSFetcher--><path d="M86.8042,146.0845 C88.8729,187.4589 91.6177,242.3532 93.3466,276.9327 " fill="none" id="RSSItem-RSSFetcher" style="stroke: #A80036; stroke-width: 1.0; stroke-dasharray: 7.0,7.0;"/><!--link RSSbot to RSS--><path d="M285.4922,90 C296.8868,90 308.2815,90 319.6761,90 " fill="none" id="RSSbot-RSS" style="stroke: #A80036; stroke-width: 1.0; stroke-dasharray: 7.0,7.0;"/><!--link RSS to RSSDatabase--><path d="M346.7422,136.1192 C345.9862,163.8388 345.0043,199.8407 344.1303,231.8894 " fill="none" id="RSS-RSSDatabase" style="stroke: #A80036; stroke-width: 1.0; stroke-dasharray: 7.0,7.0;"/><!--
@startuml rssbot
class RSSbot{
    - rssfetcher
    - rssdatabase
    + start()
    + sub()
    + unsub()
    + rss()
    - __refresh()
    - __update(String url)
    - __send()
}


class RSSItem{
    + title
    + url
    + name
    + link
    + get_mark()
}


class RSSFetcher{
    + RSS check_rss(url)
    + List<RSSItem> update_rss(url)
}


hide RSSFetcher fields

Class RSS{
    + title
    + url
    + mark
    + active
}
hide RSS methods

class RSSDatabase{
    + bool add_rss(rss)
    + bool add_sub(url,chat_id)
    + bool del_sub(url,chat_id)
    + bool set_mark(url,mark)
    + bool set_active(url,status)
    + bool get_mark(url)
    + List<String> get_chats_by_url(url)
    + RSS get_rss_by_url(url)
    + List<RSS> get_rss_list_by_chat_id(chat_id)
}


hide RSSDatabase fields

RSSbot - -> RSSFetcher
RSSbot - -> RSSDatabase
RSSItem . RSSbot
RSSItem .. RSSFetcher
RSSbot . RSS
RSS .. RSSDatabase

@enduml

PlantUML version 1.2018.12(Sun Oct 21 18:15:15 CST 2018)
(GPL source distribution)
Java Runtime: Java(TM) SE Runtime Environment
JVM: Java HotSpot(TM) 64-Bit Server VM
Java Version: 1.8.0_192-b12
Operating System: Linux
OS Version: 4.20.0-arch1-1-ARCH
Default Encoding: UTF-8
Language: en
Country: US
--></g></svg>